<?xml version="1.0" encoding="UTF-8"?>
<svg width="22px" height="25px" viewBox="0 0 22 25" version="1.1" xmlns="http://www.w3.org/2000/svg" xmlns:xlink="http://www.w3.org/1999/xlink">
    <!-- Generator: sketchtool 63.1 (101010) - https://sketch.com -->
    <title>B8E75E38-D177-4028-BFAB-7ACBB2DC9F83</title>
    <desc>Created with sketchtool.</desc>
    <g id="Page-1" stroke="none" stroke-width="1" fill="none" fill-rule="evenodd">
        <g id="Tutor-Results" transform="translate(-413.000000, -1639.000000)">
            <g id="Banner" transform="translate(136.000000, 1549.000000)">
                <g id="Active-call" transform="translate(275.000000, 88.000000)">
                    <rect id="bound" x="0" y="0" width="27" height="32"></rect>
                    <path d="M14.7149636,19.7119912 L17.1944926,16.7732902 C17.8793032,15.9616628 18.0490757,14.7217389 17.6159635,13.6951025 L17.4754732,13.3620884 C17.0423609,12.335452 17.2121335,11.0955281 17.8969441,10.2839008 L20.9713487,6.64016198 C21.1910186,6.37981245 21.5471739,6.37981245 21.7668438,6.64016198 C21.8095946,6.69082953 21.8451736,6.74933417 21.8722116,6.81342411 L23.1141842,9.75735931 C24.0643082,12.0095049 23.6918759,14.729542 22.189598,16.5100194 L15.4409193,24.5084534 C13.8056874,26.4465061 11.3869133,27.123241 9.19301948,26.2565175 L6.47672993,25.1834155 C6.18201181,25.0669836 6.02273432,24.689437 6.12097369,24.3401415 C6.1485884,24.2419558 6.19511212,24.1527387 6.25686048,24.0795554 L9.23954128,20.5445263 C9.92435187,19.732899 10.9705376,19.531687 11.8367621,20.0450053 L12.1177427,20.2115123 C12.9839672,20.7248305 14.030153,20.5236186 14.7149636,19.7119912 Z" id="Path-76" fill="#3C204F"></path>
                    <path d="M15.9165854,8.00953508 L15.7012862,10.6639653 C14.0379063,10.474454 12.3859358,11.1586119 11.1817573,12.5857864 C9.98152098,14.0082887 9.40400536,15.9580803 9.5587222,17.9235137 L7.318451,18.1712286 C7.10217628,15.4237995 7.91194425,12.6898843 9.59076705,10.7001684 C11.2751155,8.70390355 13.591398,7.74462311 15.9165854,8.00953508 Z M16.3103555,2.69640403 L16.1021801,5.35163232 C13.1195587,5.02316061 10.1587583,6.25575737 7.99977679,8.81455027 C5.84378001,11.3698057 4.8035893,14.8727829 5.07683421,18.4032067 L2.83624109,18.6467974 C2.50257351,14.3356908 3.77507904,10.0503633 6.40878653,6.92893219 C9.04614456,3.80317452 12.6681905,2.29529777 16.3103555,2.69640403 Z" id="Combined-Shape" fill="#3C204F" fill-rule="nonzero" opacity="0.3"></path>
                </g>
            </g>
        </g>
    </g>
</svg>