<svg width="221" height="161" viewBox="0 0 221 161" fill="none" xmlns="http://www.w3.org/2000/svg">
<path fill-rule="evenodd" clip-rule="evenodd" d="M97.1899 159.662C99.2455 158.234 100.524 156.28 101.051 153.814C99.2309 155.402 98.3612 157.635 97.1899 159.662ZM92.5831 129.45C98.6028 134.647 101.351 140.342 103.266 146.427C104.608 150.693 103.558 154.74 100.734 158.218C98.3284 161.18 95.5969 163.77 92.1378 165.546C89.5307 166.886 86.8204 166.89 84.0808 166.463C78.9867 165.668 73.6826 165.345 69.527 161.756C64.3376 157.276 60.4908 151.912 59.498 144.926C59.0782 141.969 59.4577 139.248 62.0522 137.137C64.6273 135.042 68.4817 136.731 70.2437 138.351C71.0592 139.101 70.8552 140.161 70.9733 141.001C71.5119 144.827 73.9268 147.683 75.711 150.865C76.078 151.521 76.5515 151.288 77.0044 150.962C79.9425 148.847 81.9238 146.308 81.1366 142.362C80.7199 140.27 80.4388 138.161 79.5222 136.201C79.0868 135.269 78.4541 134.674 77.4686 134.261C76.3014 133.77 74.6441 133.413 75.5642 131.413C75.7524 131.004 75.4216 130.825 75.027 130.74C73.2996 130.371 72.5321 128.995 73.0438 127.221C74.0796 123.627 79.7982 121.741 82.79 123.998C83.1045 124.235 83.4598 124.522 83.8255 124.571C87.9151 125.111 90.5563 128.105 92.5831 129.45Z" fill="#27D6C0"/>
<path fill-rule="evenodd" clip-rule="evenodd" d="M124.155 95.679C122.647 96.9059 121.497 98.3869 120.93 100.254C122.385 98.9958 123.816 97.7249 124.155 95.679ZM88.665 77.9787C88.644 79.0414 87.6407 79.6412 88.0631 80.6606C88.8388 80.5153 88.7288 79.6408 89.1826 79.314C89.8159 78.8588 90.6623 77.5171 91.0487 79.5286C91.0776 79.6775 91.0251 79.9168 91.2929 79.8099C93.5113 78.9264 93.4495 81.0274 94.0793 82.0475C94.7389 83.1123 95.2348 84.2831 96.1632 85.1574C97.4622 86.38 98.7761 87.5869 100.117 88.7615C101.762 90.2038 102.198 90.1392 103.496 88.3895C105.735 85.3714 105.488 81.6162 102.642 79.1752C100.308 77.1741 98.5304 74.7525 96.8137 72.2752C95.9293 70.9986 95.6636 69.4831 96.573 68.042C97.6431 66.3447 100.467 65.0269 102.264 65.6541C105.29 66.7094 108.306 67.9222 110.959 69.7194C116.195 73.2679 120.72 77.5822 124.109 82.997C125.433 85.1116 126.544 87.3711 127.045 89.7721C127.704 92.9293 126.66 95.839 124.773 98.4339C122.387 101.712 119.69 104.511 115.39 105.176C114.448 105.321 113.551 105.141 112.698 105.049C107.078 104.443 101.225 104.511 96.3119 101.143C90.6535 97.2646 86.5072 92.1219 84.3996 85.51C83.668 83.2158 83.6208 80.9356 85.6472 79.1388C86.4747 78.4055 87.4016 77.8631 88.665 77.9787Z" fill="#27D6C0"/>
<path fill-rule="evenodd" clip-rule="evenodd" d="M148.175 150.514C150.068 149.784 152.054 147.43 152.323 145.701C150.823 147.191 149.361 148.586 148.175 150.514ZM147.106 122.981C151.563 126.759 154.796 131.928 155.998 138.292C156.498 140.937 156.009 143.484 154.702 145.802C152.456 149.784 149.241 152.731 144.968 154.475C142.483 155.489 139.972 155.305 137.355 155.071C132.49 154.637 128.167 152.692 123.961 150.544C119.15 148.087 116.069 143.989 114.071 138.952C113.384 137.221 112.515 135.677 112.921 133.734C113.229 132.254 114.308 131.549 115.487 130.923C115.769 130.773 116.348 130.664 116.472 130.809C118.226 132.859 121.412 132.66 122.976 135.001C123.582 135.908 124.294 136.746 124.984 137.594C126.899 139.949 129.636 140.216 131.946 138.151C134.196 136.14 135.277 133.571 134.69 130.553C134.207 128.067 133.241 125.726 131.78 123.623C130.566 121.878 130.831 119.92 132.478 118.563C135.213 116.309 136.494 116.29 139.461 118.455C139.645 118.59 139.848 118.788 140.048 118.794C142.927 118.901 144.558 121.131 147.106 122.981Z" fill="#27D6C0"/>
<path fill-rule="evenodd" clip-rule="evenodd" d="M133.258 45.5594C134.283 44.8633 135.445 44.2942 135.522 42.8703C134.64 43.6721 133.622 44.3499 133.258 45.5594ZM112.269 29.9214C114.596 28.5394 114.353 31.0772 115.217 31.8427C115.641 32.2186 115.679 33.1347 116.54 33.0761C117.378 33.0187 117.856 32.4222 118.13 31.6757C119.353 28.344 118.568 25.2401 116.605 22.5372C115.163 20.5519 114.021 18.3923 112.585 16.4116C111.296 14.6346 111.917 12.2466 113.725 10.9685C115.886 9.44169 118.012 9.18482 120.271 10.7377C122.956 12.5839 125.885 13.9935 128.313 16.3105C133.962 21.6981 137.691 28.0284 139.017 35.7399C140.253 42.933 134.643 49.536 127.321 49.2015C124.946 49.0925 122.443 48.7204 120.358 47.2101C120.014 46.961 119.514 46.8916 119.073 46.815C111.729 45.5497 107.171 40.8937 104.337 34.3795C102.398 29.9211 104.876 27.4884 108.328 26.8042C108.76 26.7188 109.319 26.5673 109.64 26.9649C110.051 27.4753 109.379 27.7412 109.214 28.1252C109.058 28.4903 108.722 28.8881 109.162 29.1972C109.621 29.5211 109.852 29.0165 110.136 28.7606C110.653 28.2949 111.173 27.7855 111.957 28.1332C112.801 28.5082 112.136 29.251 112.269 29.9214Z" fill="#27D6C0"/>
<path fill-rule="evenodd" clip-rule="evenodd" d="M152.951 84.3446C153.053 85.8454 152.923 86.1449 152.177 85.947C151.165 85.679 150.018 86.4798 150.048 87.4542C150.067 88.0516 150.472 88.4065 151.009 88.3865C151.844 88.3557 153.399 85.1781 152.951 84.3446ZM164.378 90.9741C163.476 91.0478 163.074 92.1449 162.532 92.1114C160.642 91.994 161.469 93.8033 160.72 94.4644C160.588 94.5804 160.621 95.507 161.082 95.6646C161.551 95.8245 162.381 95.4304 162.389 95.1059C162.43 93.437 164.06 92.5875 164.378 90.9741ZM156.712 89.0226C156.237 89.5364 155.708 90.1571 156.343 90.8807C157.09 91.7327 157.406 90.6225 157.931 90.4051C158.584 90.1362 158.515 89.3133 159.004 89.0439C159.537 88.7493 159.646 88.3773 159.471 87.9385C159.215 87.301 158.506 87.4253 157.992 87.3045C157.45 87.178 157.422 87.7546 157.333 88.1103C157.242 88.4755 157.398 88.9472 156.712 89.0226ZM152.804 66.6824C153.69 66.2692 154.546 66.0197 155.316 66.5265C155.914 66.9203 155.092 67.2911 155.168 67.8967C156.477 66.5102 157.468 67.9117 157.85 68.5269C158.856 70.1487 160.609 70.819 161.796 72.1762C162.576 73.0687 163.28 74.0669 164.099 74.9357C164.949 75.8366 163.132 75.3128 162.769 75.8494C162.817 76.3452 163.12 76.5847 163.571 76.4107C164.034 76.2325 164.526 75.6182 164.948 76.0818C165.46 76.6448 166.177 77.5854 166.007 78.0966C165.548 79.4741 166.735 80.1284 167.244 80.4766C168.342 81.228 167.819 81.5669 167.203 81.9551C166.312 82.5159 166.145 83.184 166.74 83.9928C167.498 85.0246 166.401 85.9336 166.636 86.9924C166.866 88.0304 166.674 89.1582 167.692 89.9618C166.373 91.1155 165.772 89.4919 164.619 89.3822C166.713 91.5991 165.171 93.2332 163.978 94.8965C163.582 95.4496 162.877 95.8449 162.651 96.4403C162.177 97.6888 161.79 97.2185 161.157 96.2245C161.698 97.6457 161.611 98.4304 160.122 98.4039C159.582 98.3945 159.236 98.8719 158.816 99.1699C158.044 99.7181 157.808 99.6578 156.94 98.8431C156.696 98.6135 156.579 98.7943 156.371 98.8842C154.23 99.8102 152.294 99.3066 150.555 97.7619C149.727 97.0265 148.717 95.5086 147.34 97.2103C147.15 97.4443 146.94 97.3359 146.722 97.2701C142.205 95.9038 139.59 92.67 138.181 88.363C137.53 86.3752 138.645 83.7894 140.531 82.7595C141.148 82.4228 142.094 82.3163 142.751 82.5296C143.405 82.7409 143.119 83.4324 142.75 83.9652C142.463 84.3798 142.886 84.5521 143.201 84.6931C143.73 84.9289 144.085 84.7478 144.293 84.2265C144.797 82.957 145.148 82.8848 146.175 84.012C146.928 84.8376 148.317 83.9563 149.358 83.7002C150.064 83.5267 149.628 82.7034 149.373 82.2356C149.189 81.8973 149.12 81.5682 149.205 81.2536C150.014 78.2071 148.176 76.1366 146.505 74.0469C145.721 73.0667 144.75 72.1507 144.041 71.189C143.321 70.214 142.647 69.1019 141.945 68.0524C140.82 66.3696 141.855 65.1266 142.956 64.0342C143.668 63.328 144.587 62.8224 145.449 62.2834C145.658 62.1531 146.15 62.1188 146.267 62.2536C147.289 63.426 149.318 62.82 150.11 64.5306C150.31 64.9623 151.359 65.1008 152.042 65.1902C153.339 65.3584 153.384 65.3605 152.804 66.6824Z" fill="#27D6C0"/>
<path fill-rule="evenodd" clip-rule="evenodd" d="M78.6442 101.05C78.177 102.517 78.0499 103.731 78.5297 104.956C78.6192 103.742 79.6967 102.545 78.6442 101.05ZM59.4843 91.1636C60.1769 90.0315 60.0265 89.0388 60.0736 88.0958C60.1641 86.2672 61.2146 85.6519 62.8787 86.5846C63.6006 86.9889 63.9647 87.2563 64.8654 86.5905C65.7544 85.9338 67.066 86.7889 68.1425 87.097C71.4626 88.0484 74.3307 89.8477 76.7471 92.2879C79.9707 95.5428 80.9976 99.5292 80.3892 104.016C80.1105 106.073 79.4424 107.844 77.8069 109.281C77.0284 109.964 76.1437 109.965 75.3199 110.291C72.4886 111.411 69.7322 112.72 66.7475 113.459C63.5369 114.254 56.244 111.978 54.4024 108.522C53.222 106.308 53.1312 104.283 54.3648 102.168C55.074 100.951 55.9216 100.865 57.2427 101.919C57.3518 101.019 57.1419 100.347 56.6764 99.6523C55.5869 98.0247 54.7096 96.2845 54.0019 94.446C53.1607 92.264 53.5808 90.2757 54.6503 88.3253C55.0703 87.5594 55.7161 87.0004 56.5665 87.0707C57.3924 87.1388 57.9558 87.7041 58.2435 88.5765C58.5088 89.3818 58.9731 90.1215 59.4843 91.1636Z" fill="#27D6C0"/>
<path fill-rule="evenodd" clip-rule="evenodd" d="M74.768 51.5789C73.6795 49.1571 72.1406 47.118 72.0897 44.5273C72.0819 44.1305 71.9878 43.7062 72.094 43.3411C72.3465 42.4722 72.5639 41.2757 73.4875 41.1586C74.2884 41.0574 75.0492 41.8781 75.5151 42.7156C75.7382 43.1187 75.81 43.9324 76.4761 43.673C77.0387 43.4527 76.7256 42.7554 76.6893 42.2586C76.6679 41.9715 76.5754 41.6886 76.5704 41.4033C76.5609 40.871 76.1022 40.2046 76.8084 39.8543C77.3714 39.5738 78.03 39.4724 78.6215 39.889C79.1701 40.2755 79.6271 40.6946 79.9852 39.6222C80.1676 39.0767 80.9238 39.2601 81.4025 39.3064C86.6909 39.8171 90.413 42.2881 90.9007 48.2528C91.0492 50.0765 91.1504 51.9037 91.2761 53.7291C91.3453 54.7324 90.7698 55.3573 89.9784 55.7862C89.0853 56.2702 89.1988 54.9836 88.4507 54.885C88.9623 56.656 88.1808 57.2132 86.5081 57.3835C85.4717 57.4894 84.2027 57.5923 83.6652 59.0637C83.4674 59.6056 82.3442 59.9643 81.5847 60.1208C77.7787 60.9057 74.2523 60.2658 71.2542 57.6662C70.0649 56.6354 69.3737 55.3178 69.9117 53.6609C70.0149 53.3435 70.311 52.7817 70.3658 52.7995C72.0738 53.3555 73.0099 51.3362 74.768 51.5789Z" fill="#27D6C0"/>
</svg>
