<svg width="145" height="172" viewBox="0 0 145 172" fill="none" xmlns="http://www.w3.org/2000/svg">
<path d="M127.846 79.6777L127.07 78.17C125.657 78.3761 127.53 81.3125 125.319 80.64C124.414 81.7401 123.703 82.8109 122.79 83.6647C120.797 85.5303 118.753 87.3557 116.615 89.0509C115.777 89.7172 114.625 89.976 113.63 90.4517C113.275 90.6206 112.805 90.805 112.661 91.1103C110.699 95.3188 107.11 97.8477 103.472 100.408C99.6961 103.065 96.2686 106.263 92.3428 108.651C89.0294 110.667 85.5247 112.928 81.1377 110.543C78.9241 109.341 77.7965 106.164 79.481 104.244C80.0394 103.609 80.499 102.834 80.8199 102.049C83.7554 94.8586 86.7094 87.6765 89.5353 80.4432C91.9895 74.1613 94.1599 67.7632 96.6959 61.517C98.3356 57.4788 101.2 54.2248 104.424 51.3225C106.399 49.5436 108.412 47.8097 110.702 46.3686L109.399 48.4388L109.703 48.7688L113.655 45.0778L113.389 44.6253L111.631 45.1956L111.332 44.8826C111.946 44.1977 112.472 43.395 113.189 42.8465C120.018 37.6291 126.877 32.4521 133.733 27.2704C134.638 26.587 135.638 26.0137 136.477 25.2591C138.055 23.8443 141.208 22.6977 142.277 23.5174C144.048 24.8794 145.377 26.6444 144.902 29.088C144.364 31.8663 143.977 34.7284 142.994 37.3533C141.495 41.3511 140.989 45.6155 139.408 49.5669C139.153 50.1991 138.636 50.7275 138.38 51.3612C138.129 51.981 138.015 52.6706 137.911 53.34C137.7 54.7361 137.64 56.1664 137.327 57.5362C136.929 59.2695 136.427 60.977 135.824 62.6497C134.565 66.1275 133.253 69.586 131.889 73.0239C131.746 73.3881 131.177 73.5694 130.84 73.8746C130.519 74.1659 129.93 74.6169 129.997 74.8121C130.78 77.1287 127.863 77.3658 127.846 79.6777ZM128.519 67.6222C128.016 68.4419 126.583 67.7415 126.359 69.1826C126.165 70.4455 125.565 71.6464 125.127 72.9232C127.468 71.9997 127.743 69.6537 128.519 67.6206V67.6222ZM116.225 41.4921L116.556 42.0252L123.044 36.8884L122.66 36.3864L116.225 41.4921ZM102.604 54.8338L103.113 55.3482L107.252 51.1056L106.897 50.7461L102.604 54.8338Z" fill="#93EBE0"/>
<path d="M46.9375 96.0715C45.6186 92.4255 46.3621 86.6921 48.4014 85.2216L46.72 85.1348C46.6599 84.9365 46.555 84.7598 46.5596 84.5878C46.7277 78.3602 46.8372 72.1295 47.1026 65.908C47.3185 60.8301 47.7103 55.7585 48.0404 50.6852C48.5464 42.8956 51.9847 36.3689 56.7389 30.3861C63.4752 21.907 70.1807 13.4077 78.0909 5.94975C79.8463 4.29638 81.4105 2.44157 83.1166 0.730863C84.0236 -0.178723 84.7825 -0.322831 85.961 0.777349C87.9016 2.59032 88.0805 4.73025 87.8445 7.02823C86.9405 15.8901 85.9317 24.7396 85.0386 33.603C84.4987 38.9799 84.1717 44.3801 83.604 49.754C83.4451 51.2322 82.6877 52.6361 82.3484 54.1082C81.9982 55.6329 81.9072 57.2166 81.5555 58.7413C79.9219 65.8135 75.7663 71.4167 71.0137 76.6665C67.1881 80.8937 63.449 85.203 59.5463 89.3558C57.5194 91.5112 55.3768 93.6357 52.9689 95.32C51.8799 96.0793 50.0149 95.7275 48.5001 95.8825C48.0296 95.9321 47.5607 95.9956 46.9375 96.0715ZM76.9201 57.5033L76.1272 57.0709L72.4405 64.5444C72.6303 64.642 72.82 64.7428 73.0113 64.8435L76.9201 57.5017" fill="#93EBE0"/>
<path d="M140.372 107.07C139.872 110.055 139.166 113.734 138.66 117.44C138.043 121.945 137.455 126.463 137.133 130.996C136.951 133.576 136 135.68 134.373 137.483C131.319 140.872 127.942 143.981 125.09 147.528C121.906 151.49 117.77 154.197 113.94 157.321C109.768 160.724 105.615 164.154 101.396 167.495C99.8922 168.688 98.2139 169.652 96.6236 170.735C93.8424 172.629 90.822 171.983 87.8835 171.431C87.2695 171.315 86.4875 170.153 86.4211 169.414C86.2977 168.042 86.4828 166.587 86.8268 165.242C89.153 156.154 91.6164 147.103 93.9087 138.007C95.0841 133.346 97.1157 129.21 100.364 125.715C106.207 119.423 111.957 113.033 117.965 106.908C121.935 102.863 126.691 99.7799 131.586 96.9597C135.419 94.7531 139.539 96.828 140.057 101.294C140.252 102.952 140.247 104.631 140.372 107.07Z" fill="#93EBE0"/>
<path d="M37.0878 128.247C38.6766 125.431 39.8922 122.292 41.9314 119.864C46.7087 114.18 51.7914 108.747 56.925 103.386C60.2554 99.91 63.8773 96.721 67.419 93.4592C67.8047 93.1028 68.6145 92.8626 69.0757 93.0238C70.6121 93.5553 72.5156 94.0651 72.5002 96.1136C72.4694 99.7442 72.1593 103.375 71.9048 106.999C71.658 110.514 71.3448 114.023 71.041 117.531C70.5443 123.234 69.6866 128.908 66.8483 133.919C65.4908 136.318 63.2927 138.243 61.4 140.31C59.4008 142.495 57.3708 144.656 55.239 146.706C53.5654 148.315 51.7112 149.728 49.9496 151.247C48.5536 152.447 47.0681 153.571 45.8125 154.913C42.3957 158.56 38.6473 161.746 34.2233 164.061C33.2823 164.553 29.0588 164.026 28.448 163.268C27.3389 161.892 27.8155 160.445 28.2505 158.904C29.426 154.728 30.4286 150.5 31.5269 146.299C32.9152 140.999 34.2989 135.7 35.7643 130.424C35.9864 129.629 36.6482 128.959 37.114 128.225C37.3608 128.55 37.5984 128.885 37.9177 129.336L41.7587 122.777L41.2033 122.431C40.7468 123.118 40.3102 123.815 39.8336 124.483C38.9312 125.746 38.0041 126.993 37.0878 128.247ZM41.9253 121.209L42.5485 121.831L45.4284 118.353L41.9253 121.209ZM45.4269 118.353L46.8414 117.2L46.5977 116.94L45.4284 118.353H45.4269ZM57.7426 137.435L58.0958 137.697L62.8855 132.568L62.5492 132.251L57.7426 137.435ZM63.4192 128.615L62.6387 128.183L60.7136 131.471L61.346 131.846L63.4192 128.615Z" fill="#93EBE0"/>
<path d="M0 127.04C0.87 120.651 1.64282 115.043 2.39559 109.432C2.69484 107.19 3.03729 104.948 3.20543 102.695C3.64814 96.7616 7.22532 92.5608 10.9552 88.3677C13.6485 85.3384 16.0503 82.0549 18.7112 78.9961C21.9305 75.2957 25.2084 71.6388 28.6298 68.1244C29.6849 67.0397 31.1056 66.141 32.9952 66.9313C35.2026 67.8532 36.904 69.0975 36.9395 71.6419C37.0043 76.2751 37.1138 80.9206 36.8717 85.5445C36.7498 87.8672 35.7502 90.1311 35.4201 92.4585C35.0931 94.7705 35.198 97.1397 34.9435 99.4672C34.7614 101.139 34.5732 102.901 33.8976 104.406C33.0478 106.278 31.9242 108.012 30.5641 109.55C28.349 112.051 25.8748 114.329 23.5023 116.692C20.1643 120.014 16.9665 123.474 12.8279 125.912C11.4751 126.708 10.4415 128.016 9.17665 128.978C6.87979 130.722 4.24048 130.218 1.83718 129.497C0.911649 129.219 0.393351 127.602 0 127.04H0ZM15.8729 85.1633L15.3746 84.7852L10.2348 90.9276L10.6745 91.2762L15.8729 85.1633ZM22.7727 93.881L22.2683 93.6796L19.7647 99.9382L20.2414 100.118L22.7727 93.881Z" fill="#93EBE0"/>
</svg>
