<svg width="116" height="148" viewBox="0 0 116 148" fill="none" xmlns="http://www.w3.org/2000/svg">
  <path fill-rule="evenodd" clip-rule="evenodd" d="M0.489082 27.5587C1.06845 24.5079 2.52429 21.925 4.67082 19.8051C5.55566 18.9298 7.17246 18.6583 7.95908 19.7732C10.5307 23.4158 14.3444 22.8473 17.8617 22.8067C40.2371 22.5457 62.0961 18.6356 83.6933 13.0848C91.5752 11.06 99.3793 8.73079 107.23 6.58638C108.296 6.2957 109.344 5.5992 110.475 6.95708C111.604 8.3112 110.279 9.11114 110.291 10.0687C110.383 17.3385 104.67 18.6648 99.7097 20.8026C74.6267 31.6155 48.3278 36.1636 21.126 36.0159C16.1483 35.9885 11.2048 35.4716 6.47237 33.8496C3.45765 32.815 0.866933 31.1836 0.489082 27.5587Z" fill="#b693d1"/>
  <path fill-rule="evenodd" clip-rule="evenodd" d="M43.6589 90.1356C41.5174 89.1431 40.7104 87.8606 41.5455 85.8008C42.3653 83.7768 43.4544 82.7857 45.9094 82.8062C51.1611 82.8492 55.6782 80.2054 60.1755 77.8913C76.0139 69.7468 91.2002 60.4507 106.513 51.38C107.719 50.6663 108.914 49.8595 110.506 50.7272C112.445 51.7809 110.557 53.0608 110.873 54.1923C111.915 57.9177 109.285 59.6938 106.855 61.4754C94.2341 70.7236 81.8091 80.2775 67.5068 86.9267C62.8147 89.1078 58.0784 91.1552 53.1291 92.7197C50.9395 93.4111 48.6009 91.8428 46.3911 93.6846C45.4921 94.4351 43.4031 93.973 42.1132 92.833C41.4426 92.241 40.5651 91.6308 40.9043 90.6807C41.3019 89.5659 42.426 90.2984 43.6589 90.1356Z" fill="#b693d1"/>
  <path fill-rule="evenodd" clip-rule="evenodd" d="M75.8962 141.367C76.2691 137.151 78.0126 134.739 81.0614 132.527C86.935 128.265 90.7878 122.079 94.6817 116.059C99.831 108.102 104.431 99.8375 108.358 91.1951C109.352 89.0051 110.749 86.9845 112.091 84.9732C112.602 84.2072 113.321 83.3233 114.552 84.1088C115.556 84.7475 115.426 85.5346 115.435 86.6197C115.503 95.0823 110.776 101.873 107.468 109.055C102.958 118.845 97.4765 128.156 90.3289 136.356C87.7054 139.365 84.7655 142.007 81.4344 144.202C80.0062 145.142 78.5356 145.782 76.8089 144.808C74.9158 143.74 75.5521 142.272 75.8962 141.367Z" fill="#b693d1"/>
</svg>
