<svg width="33" height="26" viewBox="0 0 33 26" fill="none" xmlns="http://www.w3.org/2000/svg">
  <path d="M30.4918 15.7375V7.17694L30.8471 7.07031C32.2132 6.66031 32.5 5.96619 32.5 5.45606C32.4999 4.94594 32.2131 4.25181 30.8471 3.842L19.157 0.334938C18.437 0.118938 17.4934 0 16.5001 0C15.5068 0 14.5632 0.118938 13.8431 0.334938L2.15306 3.842C0.786812 4.25181 0.5 4.94594 0.5 5.45613C0.5 5.96625 0.78675 6.66044 2.153 7.07037L6.52506 8.382V12.9874C6.52506 13.8649 7.0955 15.1011 9.81306 16.007C11.6131 16.607 13.9879 16.9374 16.5 16.9374C19.0121 16.9374 21.3869 16.607 23.1869 16.007C25.9045 15.1011 26.4749 13.8649 26.4749 12.9874V8.38206L28.6167 7.7395V15.7375C27.4508 16.1301 26.6084 17.2329 26.6084 18.5296V22.5462C26.6084 24.1705 27.9298 25.492 29.5542 25.492C31.1785 25.492 32.5 24.1706 32.5 22.5462V18.5296C32.5001 17.2329 31.6576 16.1301 30.4918 15.7375ZM14.3818 2.13087C14.924 1.96819 15.6961 1.87494 16.5001 1.87494C17.3041 1.87494 18.0761 1.96819 18.6182 2.13081L29.7024 5.45613L25.2634 6.78788C25.2609 6.78869 25.2584 6.78937 25.2558 6.79019L18.6183 8.7815C18.0762 8.94413 17.3042 9.03737 16.5002 9.03737C15.6962 9.03737 14.9241 8.94413 14.3819 8.7815L7.74444 6.79019C7.74188 6.78937 7.73938 6.78869 7.73681 6.78788L3.29781 5.45613L14.3818 2.13087ZM24.6001 12.9873C24.6001 13.1082 24.2596 13.6729 22.5941 14.2281C20.9802 14.7661 18.8159 15.0624 16.5001 15.0624C14.1841 15.0624 12.0199 14.7661 10.4061 14.2281C8.74056 13.6729 8.40006 13.1081 8.40006 12.9873V8.94444L13.8431 10.5774C14.5632 10.7934 15.5068 10.9123 16.5001 10.9123C17.4934 10.9123 18.4369 10.7934 19.1571 10.5774L24.6001 8.94444V12.9873ZM30.6251 22.5461C30.6251 23.1366 30.1447 23.6169 29.5543 23.6169C28.9638 23.6169 28.4834 23.1366 28.4834 22.5461V18.5295C28.4834 17.939 28.9638 17.4586 29.5543 17.4586C30.1448 17.4586 30.6251 17.939 30.6251 18.5295V22.5461Z" fill="#FF7291"/>
</svg>
