<?xml version="1.0" encoding="UTF-8"?>
<svg width="16px" height="16px" viewBox="0 0 16 16" version="1.1" xmlns="http://www.w3.org/2000/svg" xmlns:xlink="http://www.w3.org/1999/xlink">
    <!-- Generator: sketchtool 62 (101010) - https://sketch.com -->
    <title>087892F3-4625-4A27-9EF3-157D2C413569@3x</title>
    <desc>Created with sketchtool.</desc>
    <g id="Page-1" stroke="none" stroke-width="1" fill="none" fill-rule="evenodd">
        <g id="Tutor-Results" transform="translate(-605.000000, -861.000000)" fill="#62686E" fill-rule="nonzero">
            <g id="Tutor-card" transform="translate(136.000000, 769.000000)">
                <g id="Group-4" transform="translate(469.000000, 92.000000)">
                    <g id="growth">
                        <path d="M2.40966797,12.5520019 L1.72387694,12.5520019 C0.773315437,12.5520019 0,13.3254394 0,14.276001 L0,15.53125 C0,15.7901611 0.209838875,16 0.46875,16 L2.49035644,16 C2.43823244,15.8532715 2.40966797,15.6955566 2.40966797,15.53125 L2.40966797,12.5520019 Z" id="Path"></path>
                        <path d="M5.75683594,10.041626 L5.071167,10.041626 C4.12060547,10.041626 3.34716797,10.8150635 3.34716797,11.765625 L3.34716797,15.53125 C3.34716797,15.7901611 3.55700684,16 3.81591797,16 L5.83752441,16 C5.78552247,15.8532715 5.75683594,15.6955566 5.75683594,15.53125 L5.75683594,10.041626 Z" id="Path"></path>
                        <path d="M15.907959,4.70849609 L12.5606689,0.18969725 C12.472168,0.0704345625 12.3325195,0 12.18396,0 C12.0354004,0 11.8956299,0.0704345625 11.807251,0.18969725 L8.460083,4.70849609 C8.35473631,4.850708 8.33850097,5.04028319 8.41809081,5.19836425 C8.49780275,5.35644531 8.65966797,5.45629881 8.836792,5.45629881 L10.041626,5.45629881 L10.041626,15.53125 C10.041626,15.7901611 10.2514648,16 10.510376,16 L13.8575439,16 C14.1164551,16 14.3262939,15.7901611 14.3262939,15.53125 L14.3262939,5.45629881 L15.53125,5.45629881 C15.7082519,5.45629881 15.8702392,5.35644531 15.9498291,5.19836425 C16.029541,5.04028319 16.0133057,4.850708 15.907959,4.70849609 Z" id="Path"></path>
                        <path d="M9.10412597,7.53125 L8.41833497,7.53125 C7.46777344,7.53125 6.69433594,8.30456544 6.69433594,9.25512694 L6.69433594,15.53125 C6.69433594,15.7901611 6.90429688,16 7.16308594,16 L9.18469237,16 C9.13269044,15.8532715 9.10412597,15.6955566 9.10412597,15.53125 L9.10412597,7.53125 Z" id="Path"></path>
                    </g>
                </g>
            </g>
        </g>
    </g>
</svg>