<svg width="81" height="80" viewBox="0 0 81 80" fill="none" xmlns="http://www.w3.org/2000/svg">
  <circle cx="40.5" cy="40" r="38.5" stroke="#ff7291" stroke-width="3"/>
  <path d="M60.4867 35.1369C60.4086 34.529 60.0704 33.9707 59.5761 33.5861L42.0021 20.4843C41.1436 19.8516 39.8428 19.8516 38.9972 20.4843L21.4363 33.5861C21.059 33.8714 20.7729 34.256 20.6298 34.6903C20.4867 35.1245 20.4737 35.596 20.5907 36.0426C20.7078 36.4893 20.981 36.8863 21.3452 37.1841C21.7094 37.4818 22.1647 37.6804 22.646 37.73C23.2834 37.8168 23.9468 37.6307 24.4411 37.2585L24.7273 37.0476V55.9682H22.9322C22.7241 55.9682 22.5029 56.055 22.3598 56.1915C22.2038 56.3404 22.1257 56.5389 22.1257 56.7374V59.2188C22.1257 59.4297 22.2038 59.6158 22.3598 59.7647C22.5159 59.9136 22.7241 59.988 22.9322 59.988H58.0542C58.2753 59.988 58.4704 59.9012 58.6265 59.7647C58.7826 59.6158 58.8607 59.4173 58.8607 59.2188V56.9483C59.0558 56.7747 59.2119 56.5637 59.329 56.328C59.446 56.0675 59.5111 55.7945 59.5111 55.5091V46.8243C59.5111 46.2908 59.2899 45.7697 58.8867 45.3975C58.4964 45.0253 57.9501 44.8019 57.3907 44.8019H56.272V37.0476L56.5582 37.2585C56.8184 37.4446 57.1046 37.5811 57.4038 37.668C57.716 37.7548 58.0281 37.7672 58.3533 37.7424C58.6786 37.7052 58.9777 37.6059 59.2509 37.457C59.5241 37.3082 59.7712 37.1096 59.9664 36.8615C60.3826 36.3652 60.5647 35.7573 60.4867 35.1369ZM42.1322 55.9682H40.6623V54.5662C41.0005 54.6779 41.3127 54.864 41.5729 55.1121C41.82 55.3479 42.0151 55.6456 42.1322 55.9682ZM44.8899 54.4173V55.9682H43.8233C43.7062 55.3975 43.446 54.8764 43.0948 54.4173H44.8899ZM35.7842 53.6357C35.7842 53.8466 35.8623 54.0327 36.0184 54.1816C36.1745 54.3305 36.3696 54.4049 36.5907 54.4049H39.0363V55.9558H34.6395C34.5094 55.9558 34.3794 55.9062 34.2883 55.8193C34.1972 55.7325 34.1452 55.6208 34.1452 55.4967V51.1543C34.1452 50.0377 34.6005 48.9831 35.433 48.2015C36.2655 47.4074 37.3582 46.9732 38.542 46.9732H42.4444H42.4574C43.329 46.9732 44.1615 47.2213 44.8769 47.6804V52.8665H36.5777C36.3566 52.8665 36.1615 52.9533 36.0054 53.0898C35.8623 53.2387 35.7842 53.4372 35.7842 53.6357ZM37.4103 41.4893C38.3598 41.5265 39.3094 41.3528 40.181 40.993C41.0916 40.6084 41.8851 40.0253 42.5094 39.2933L43.5761 40.3106V42.4694C43.5761 43.2511 43.2509 43.9955 42.6655 44.5538C42.0802 45.1121 41.3127 45.4223 40.4802 45.4223C39.6477 45.4223 38.8802 45.1121 38.2948 44.5538C37.7094 43.9955 37.3842 43.2635 37.3842 42.4694V41.4893H37.4103ZM44.8119 44.2933C45.072 43.7225 45.2151 43.1022 45.2151 42.4818V40.0005C45.2151 39.7895 45.1241 39.6034 44.981 39.4546L43.0298 37.5935C42.9517 37.5191 42.8477 37.457 42.7436 37.4198C42.6395 37.3826 42.5094 37.3702 42.4054 37.3702C42.2883 37.3702 42.1712 37.4074 42.0802 37.457C41.9761 37.5067 41.8851 37.5811 41.82 37.668L41.2867 38.3007C40.7533 38.9335 40.0509 39.4173 39.2574 39.6903C38.4639 39.9632 37.5924 40.0253 36.7598 39.864C36.6428 39.8392 36.5257 39.8392 36.3956 39.8764C36.2785 39.9012 36.1745 39.9508 36.0834 40.0253C35.9924 40.0997 35.9143 40.1866 35.8623 40.2982C35.8103 40.3975 35.7842 40.5215 35.7842 40.6332V42.4943C35.7842 43.127 35.9143 43.7349 36.1875 44.3057C36.4086 44.7895 36.7208 45.2238 37.1111 45.6084C36.4086 45.7697 35.7322 46.0675 35.1338 46.4645V40.323C35.1338 38.9583 35.6932 37.668 36.7078 36.7002C37.7225 35.7325 39.0753 35.199 40.5062 35.199C41.9371 35.199 43.2899 35.7325 44.3046 36.7002C45.3192 37.668 45.8785 38.9459 45.8785 40.323V45.1493C45.5273 45.3603 45.2542 45.6704 45.0851 46.0302C44.7078 45.8565 44.3046 45.7201 43.9013 45.6208C44.2785 45.2114 44.5777 44.7771 44.8119 44.2933ZM54.646 44.8019H47.4916V40.3106C47.4916 38.524 46.7631 36.8491 45.4493 35.596C44.1355 34.3305 42.3794 33.6357 40.5062 33.6357C38.633 33.6357 36.8769 34.3305 35.5631 35.5836C34.2363 36.8491 33.5208 38.524 33.5208 40.2982V48.0278C32.8834 48.9583 32.5452 50.0377 32.5452 51.1543V55.4967C32.5452 55.658 32.5712 55.8069 32.6103 55.9558H26.3533V35.8193L40.5062 25.261L54.659 35.8193V44.8019H54.646ZM46.5159 46.8119C46.5159 46.6878 46.568 46.5761 46.659 46.4893C46.7501 46.4024 46.8672 46.3528 46.9972 46.3528H57.4038C57.5338 46.3528 57.6509 46.4024 57.742 46.4893C57.833 46.5761 57.8851 46.6878 57.8851 46.8119V55.4967C57.8851 55.6208 57.833 55.7325 57.742 55.8193C57.6509 55.9062 57.5338 55.9558 57.4038 55.9558H46.5159V46.8119ZM58.8737 35.323C58.8997 35.5216 58.8346 35.7325 58.7046 35.8938C58.5615 36.055 58.3794 36.1543 58.1582 36.1791C57.9501 36.2039 57.729 36.1543 57.5598 36.0302L41.0005 23.6729C40.7143 23.462 40.2851 23.462 39.9989 23.6729L23.4395 36.0302C23.3485 36.0923 23.2574 36.1419 23.1533 36.1667C23.0493 36.1915 22.9452 36.2039 22.8281 36.1915C22.7241 36.1791 22.62 36.1543 22.529 36.0923C22.4379 36.0426 22.3468 35.9806 22.2818 35.8938C22.2168 35.8069 22.1647 35.7201 22.1387 35.6208C22.1127 35.5216 22.0997 35.4099 22.1127 35.3106C22.1257 35.2114 22.1647 35.1121 22.2168 35.0253C22.2688 34.9384 22.3468 34.864 22.4379 34.7895L39.9989 21.6878C40.142 21.5761 40.3241 21.5265 40.5062 21.5265C40.6883 21.5265 40.8704 21.5885 41.0135 21.6878L58.5745 34.7895C58.7306 34.9384 58.8346 35.1245 58.8737 35.323ZM57.2477 57.5191V58.4496H23.7517V57.5191H57.2477Z" fill="#ff7291"/>
  <path d="M54.1643 49.2927C53.7741 48.9205 53.2928 48.6723 52.7464 48.5731C52.2131 48.4738 51.6538 48.5234 51.1464 48.7219C50.6391 48.9205 50.2099 49.2554 49.9107 49.6897C49.6115 50.1239 49.4424 50.6326 49.4424 51.1537C49.4424 51.8485 49.7416 52.5309 50.2489 53.0148C50.7692 53.4986 51.4717 53.784 52.2001 53.784C52.7464 53.784 53.2798 53.6351 53.7351 53.3373C54.1903 53.052 54.5416 52.6425 54.7497 52.1587C54.9578 51.6748 55.0099 51.1413 54.9058 50.6326C54.8147 50.1239 54.5546 49.6649 54.1643 49.2927ZM53.3188 51.3646C53.2798 51.5755 53.1627 51.7617 53.0066 51.9229C52.8505 52.0842 52.6424 52.1835 52.4212 52.2207C52.2001 52.2579 51.966 52.2455 51.7578 52.1587C51.5497 52.0718 51.3676 51.9353 51.2505 51.7617C51.1334 51.588 51.0554 51.377 51.0554 51.1537C51.0554 50.8684 51.1725 50.583 51.3936 50.3845C51.6017 50.186 51.9009 50.0619 52.2001 50.0619C52.4212 50.0619 52.6424 50.1239 52.8375 50.248C53.0326 50.3721 53.1757 50.5334 53.2538 50.7319C53.3318 50.9304 53.3708 51.1537 53.3188 51.3646Z" fill="#ff7291"/>
</svg>
