<svg xmlns="http://www.w3.org/2000/svg" width="65" height="32" fill="none" viewBox="0 0 65 32">
    <g fill="#7D3FA8" clip-path="url(#clip0)">
        <path d="M.941 4.26C.941 1.987 2.558.128 5.155.128c2.735 0 4.2 1.95 4.2 4.24 0 2.52-1.852 4.047-4.18 4.047C2.64 8.416.94 6.695.94 4.259zM.941 11.889c0-.389.218-.67.652-.67h7.09c.375 0 .623.297.623.664v10.901c0 1.86 1.055 4.02 4.312 4.02 3.172 0 4.812-1.978 4.812-6.02v-.85l3.368 6.428.434 2.18s-3.304 3.203-9.292 3.203c-2.972 0-11.999-.49-11.999-10.394v-9.462zM22.23 28.573l3.363-8.723 1.085-1.09v1.526c0 3.672 1.772 6.497 6.357 6.497 4.182 0 7.125-2.381 7.125-6.075 0-1.878-.905-3.368-.905-3.368l4.743 2.38.416 5.8s-3.158 6.226-12.062 6.226c-6.952 0-10.121-3.173-10.121-3.173z"/>
        <path d="M22.209 28.56s-3.803-2.909-3.803-8.348V4.635c0-1.253.808-2.338 4.174-2.338 3.679 0 4.083 1.433 4.083 2.509v6.463h6.518c.47 0 .652.275.652.711v3.856c0 .365-.149.653-.576.653h-4.313c-1.118 0-2.281-.435-2.281-.435v2.61c0 3.254-.84 6.578-4.454 9.896zM44.543 25.513l1.039-11.398.47-1.983s2.073 3.018 7.355 12.729c3.355-6.09 5.494-13.369 5.494-13.369.15-.497.548-.618 1.124-.466l3.62 1.117c.44.157.68.33.432 1.147-3.012 8.752-7.729 15.972-7.729 15.972-.908 1.343-1.833 2.484-4.897 2.484-2.473 0-3.334-.841-4.195-2.124l-2.713-4.11z"/>
        <path d="M44.499 25.501l-5.609-8.886c-.337-.633-.593-1.018-.593-1.77.004-1.106.576-1.905 2.513-3.126.419-.276 1.927-.88 3.15-.88 1.649 0 2.879 1.717 2.879 5.306 0 5.841-2.34 9.356-2.34 9.356z"/>
    </g>
    <defs>
        <clipPath id="clip0">
            <path fill="#fff" d="M0 0H63.745V32H0z" transform="translate(.813)"/>
        </clipPath>
    </defs>
</svg>
