<svg width="33" height="32" viewBox="0 0 33 32" fill="none" xmlns="http://www.w3.org/2000/svg">
  <path d="M10.7451 17.7992C11.818 16.8814 12.5 15.5192 12.5 14C12.5 11.243 10.257 9 7.5 9C4.743 9 2.5 11.243 2.5 14C2.5 15.5192 3.182 16.8814 4.25487 17.7992C2.02475 18.9711 0.5 21.3107 0.5 24V30.0263C0.5 30.4567 0.775437 30.8389 1.18375 30.975C3.22412 31.6551 5.34925 32 7.5 32C9.65075 32 11.7759 31.6551 13.8162 30.9751C14.2246 30.8389 14.5 30.4568 14.5 30.0264V24C14.5 21.3107 12.9753 18.9711 10.7451 17.7992ZM4.5 14C4.5 12.3458 5.84581 11 7.5 11C9.15419 11 10.5 12.3458 10.5 14C10.5 15.6542 9.15419 17 7.5 17C5.84581 17 4.5 15.6542 4.5 14ZM12.5 29.2903C9.25019 30.2285 5.74981 30.2285 2.5 29.2903V24C2.5 21.243 4.743 19 7.5 19C10.257 19 12.5 21.243 12.5 24V29.2903Z" fill="#FF7291"/>
  <path d="M28.7451 17.7992C29.818 16.8814 30.5 15.5192 30.5 14C30.5 11.243 28.257 9 25.5 9C22.743 9 20.5 11.243 20.5 14C20.5 15.5192 21.182 16.8814 22.2549 17.7992C20.0248 18.9711 18.5 21.3107 18.5 24V30.0263C18.5 30.4567 18.7754 30.8389 19.1838 30.975C21.2241 31.6551 23.3492 32 25.5 32C27.6508 32 29.7759 31.6551 31.8162 30.9751C32.2246 30.8389 32.5 30.4568 32.5 30.0264V24C32.5 21.3107 30.9753 18.9711 28.7451 17.7992ZM22.5 14C22.5 12.3458 23.8458 11 25.5 11C27.1542 11 28.5 12.3458 28.5 14C28.5 15.6542 27.1542 17 25.5 17C23.8458 17 22.5 15.6542 22.5 14ZM30.5 29.2903C27.2502 30.2285 23.7498 30.2285 20.5 29.2903V24C20.5 21.243 22.743 19 25.5 19C28.257 19 30.5 21.243 30.5 24V29.2903Z" fill="#FF7291"/>
  <path d="M21.8035 4.19688C21.5475 4.19688 21.2916 4.09919 21.0963 3.90381C19.8691 2.67613 18.2369 2 16.5004 2C14.7638 2 13.1317 2.67613 11.9045 3.90381C11.514 4.29444 10.8809 4.29456 10.4903 3.90412C10.0997 3.51369 10.0996 2.8805 10.49 2.48994C12.0949 0.88425 14.2294 0 16.5004 0C18.7713 0 20.9058 0.88425 22.5108 2.48994C22.9013 2.88056 22.9011 3.51369 22.5105 3.90412C22.3153 4.09925 22.0593 4.19688 21.8035 4.19688Z" fill="#FF7291"/>
  <path d="M19.3284 6.67125C19.0725 6.67125 18.8166 6.57363 18.6213 6.37832C18.0549 5.81194 17.3014 5.5 16.4996 5.5C15.6979 5.5 14.9444 5.81194 14.378 6.37838C13.9875 6.76888 13.3543 6.76894 12.9638 6.37838C12.5733 5.98788 12.5733 5.35469 12.9638 4.96419C13.9079 4.02 15.1636 3.5 16.4996 3.5C17.8356 3.5 19.0913 4.02 20.0355 4.96419C20.426 5.35475 20.426 5.98788 20.0355 6.37838C19.8402 6.57363 19.5843 6.67125 19.3284 6.67125Z" fill="#FF7291"/>
  <path d="M16.5 11C15.6729 11 15 10.3271 15 9.5C15 8.67294 15.6729 8 16.5 8C17.3271 8 18 8.67294 18 9.5C18 10.3271 17.3271 11 16.5 11Z" fill="#FF7291"/>
</svg>
