<svg width="132" height="32" viewBox="0 0 132 32" fill="none" xmlns="http://www.w3.org/2000/svg">
  <path d="M131.251 16C131.251 7.15351 124.097 0 115.584 0C107.077 0 99.9238 7.15351 99.9238 16C99.9238 24.8465 107.077 32 115.584 32C124.097 32 131.251 24.8465 131.251 16ZM123.126 16C123.126 20.1492 119.74 23.7918 115.584 23.7918C111.476 23.7918 108.056 20.3157 108.056 16C108.056 11.6843 111.483 8.20815 115.584 8.20815C119.74 8.20815 123.126 11.8508 123.126 16ZM99.5422 31.2437L93.7001 18.033C96.3713 16.2567 97.8492 13.8005 97.8492 10.5395C97.8492 4.05898 93.6584 0.756288 87.6012 0.756288H77.145V31.2368H85.1034V18.6644H85.1866L90.5639 31.2437H99.5422ZM89.8909 11.3027C89.8909 14.0572 88.0661 15.0703 85.1034 15.0703V7.53513C88.0661 7.53513 89.8909 8.54814 89.8909 11.3027ZM68.6385 8.46487H74.8692L74.0574 0.756288H55.2612L54.4633 8.46487H60.687V31.2437H68.6385V8.46487ZM43.6255 23.2021V20.0243H49.8909V11.9827H43.6255V8.8118H53.2352L52.0001 0.763226H35.6602V31.2437H52.2152L54.2898 23.2021H43.6255Z" fill="#7D3FA8"/>
  <path d="M22.4143 0.7556L16.8705 12.5648L11.3197 0.707031H4.97108L0.780273 31.1875H8.9121L10.6883 18.6567H10.7716L16.8705 31.4026L22.9902 18.6914L24.8219 31.243H32.9537L28.7629 0.7556H22.4143Z" fill="#7D3FA8"/>
</svg>
