<?xml version="1.0" encoding="UTF-8"?>
<svg width="16px" height="14px" viewBox="0 0 16 14" version="1.1" xmlns="http://www.w3.org/2000/svg" xmlns:xlink="http://www.w3.org/1999/xlink">
    <!-- Generator: sketchtool 62 (101010) - https://sketch.com -->
    <title>13CC972D-7E79-4CCF-8036-C5D35C65854B@3x</title>
    <desc>Created with sketchtool.</desc>
    <g id="Page-1" stroke="none" stroke-width="1" fill="none" fill-rule="evenodd">
        <g id="Tutor-Results" transform="translate(-605.000000, -1840.000000)" fill="#62686E" fill-rule="nonzero">
            <g id="Tutor-card" transform="translate(136.000000, 1715.000000)">
                <g id="Group-6" transform="translate(469.000000, 125.000000)">
                    <g id="mortarboard">
                        <path d="M8.20959375,9.43634375 C8.0778125,9.50225 7.9221875,9.50225 7.79034375,9.43634375 L3.15621875,7.11915625 L3.7945,9.72109375 C3.82059375,9.826375 3.8819375,9.9193125 3.96890625,9.9843125 C5.1554375,10.8742187 6.5776875,11.3195937 7.99996875,11.3195937 C9.42225,11.3195937 10.8445,10.8741875 12.0310313,9.9843125 C12.118,9.9193125 12.1793438,9.826375 12.2054375,9.72109375 L12.8437188,7.11915625 L8.20959375,9.43634375 Z" id="Path"></path>
                        <path d="M15.9012813,11.7625313 C15.521125,12.0286562 15.0607187,12.1875 14.5625,12.1875 C14.0642813,12.1875 13.603875,12.0286562 13.2237187,11.7625313 C13.1842812,11.8979688 13.15625,12.038375 13.15625,12.1875 C13.15625,13.1854375 14.1839375,13.904125 14.301125,13.9828437 C14.4595313,14.0890625 14.6655,14.0890625 14.8239063,13.9828437 C14.9410625,13.904125 15.96875,13.1854375 15.96875,12.1875 C15.96875,12.038375 15.9407188,11.8979688 15.9012813,11.7625313 Z" id="Path"></path>
                        <path d="M15.03125,8.52384375 L15.03125,4.97725 L15.7409063,4.6380625 C15.89975,4.55840625 16,4.396375 16,4.21875 C16,4.041125 15.89975,3.87909375 15.7409063,3.7994375 L8.20965625,0.0494375 C8.0778125,-0.01646875 7.9221875,-0.01646875 7.79034375,0.0494375 L0.25909375,3.7994375 C0.10025,3.87909375 0,4.041125 0,4.21875 C0,4.396375 0.10025,4.55840625 0.25909375,4.6380625 L7.79034375,8.3880625 C7.9221875,8.45396875 8.0778125,8.45396875 8.20965625,8.3880625 L14.09375,5.446 L14.09375,8.52384375 C13.5493125,8.718 13.15625,9.2334375 13.15625,9.84375 C13.15625,10.6191875 13.7870625,11.25 14.5625,11.25 C15.3379375,11.25 15.96875,10.6191875 15.96875,9.84375 C15.96875,9.2334375 15.5756875,8.718 15.03125,8.52384375 Z M10.3199375,3.7261875 C9.70059375,4.346 8.876625,4.6875 8,4.6875 C7.123375,4.6875 6.29940625,4.346 5.6800625,3.7261875 C5.49696875,3.54309375 5.49696875,3.246 5.6800625,3.06334375 C5.86315625,2.88025 6.1598125,2.88025 6.34290625,3.06334375 C7.22821875,3.94865625 8.7718125,3.94865625 9.657125,3.06334375 C9.84021875,2.88025 10.136875,2.88025 10.3199688,3.06334375 C10.5030625,3.246 10.5030625,3.54309375 10.3199375,3.7261875 Z" id="Shape"></path>
                    </g>
                </g>
            </g>
        </g>
    </g>
</svg>