<svg width="32" height="33" viewBox="0 0 32 33" fill="none" xmlns="http://www.w3.org/2000/svg">
  <path d="M31.7865 15.4248C28.8781 11.8813 22.7205 7.74609 16 7.74609C9.2555 7.74609 3.09763 11.9094 0.213553 15.4248C-0.0711843 15.7718 -0.0711843 16.2716 0.213553 16.6187C3.19093 20.2479 9.36298 24.2974 16 24.2974C22.8729 24.2974 29.0043 20.0084 31.7865 16.6188C32.0712 16.2716 32.0712 15.7718 31.7865 15.4248ZM22.3933 16.0217C22.3933 19.547 19.5253 22.4151 16 22.4151C12.4746 22.4151 9.60662 19.5468 9.60662 16.0217C9.60662 12.4965 12.4746 9.62838 16 9.62838C19.5256 9.62845 22.3933 12.4968 22.3933 16.0217ZM2.21255 16.022C3.27187 14.921 5.8261 12.5449 9.41167 11.0199C7.16151 13.9766 7.16063 18.0645 9.4106 21.0222C6.68439 19.8668 4.15188 18.0412 2.21255 16.022ZM22.5884 21.0236C24.8386 18.0668 24.8394 13.979 22.5895 11.0213C25.3155 12.1767 27.8481 14.0023 29.7875 16.0214C28.7282 17.1225 26.174 19.4985 22.5884 21.0236Z" fill="#FF7291"/>
  <path d="M12.7998 16.0223C12.7998 17.7868 14.2353 19.2223 15.9998 19.2223C17.7642 19.2223 19.1998 17.7868 19.1998 16.0223C19.1998 14.2577 17.7642 12.8223 15.9998 12.8223C14.2353 12.8223 12.7998 14.2577 12.7998 16.0223ZM17.3174 16.0223C17.3174 16.7488 16.7263 17.3399 15.9998 17.3399C15.2732 17.3399 14.6822 16.7488 14.6822 16.0223C14.6822 15.2957 15.2732 14.7046 15.9998 14.7046C16.7263 14.7046 17.3174 15.2957 17.3174 16.0223Z" fill="#FF7291"/>
  <path d="M15.9998 4.09992C16.5196 4.09992 16.941 3.67852 16.941 3.15874V0.962661C16.941 0.44288 16.5196 0.0214844 15.9998 0.0214844C15.48 0.0214844 15.0586 0.44288 15.0586 0.962661V3.15874C15.0586 3.67852 15.48 4.09992 15.9998 4.09992Z" fill="#FF7291"/>
  <path d="M21.6157 5.35931C22.0669 5.61669 22.6419 5.45976 22.8995 5.008L24.152 2.81192C24.4095 2.3604 24.2523 1.78566 23.8008 1.52809C23.3491 1.27058 22.7745 1.42776 22.5169 1.8794L21.2644 4.07548C21.0069 4.52693 21.1641 5.10174 21.6157 5.35931Z" fill="#FF7291"/>
  <path d="M9.10091 5.00799C9.35842 5.4595 9.93316 5.61674 10.3847 5.35923C10.8363 5.10173 10.9935 4.52692 10.736 4.0754L9.48347 1.87933C9.22596 1.42781 8.65109 1.27057 8.19964 1.52808C7.74812 1.78559 7.59089 2.36039 7.84839 2.81191L9.10091 5.00799Z" fill="#FF7291"/>
  <path d="M15.9998 27.9434C15.48 27.9434 15.0586 28.3648 15.0586 28.8845V31.0806C15.0586 31.6004 15.48 32.0218 15.9998 32.0218C16.5196 32.0218 16.941 31.6004 16.941 31.0806V28.8845C16.941 28.3648 16.5196 27.9434 15.9998 27.9434Z" fill="#FF7291"/>
  <path d="M10.3847 26.6843C9.93322 26.4269 9.35848 26.584 9.10091 27.0355L7.84839 29.2316C7.59089 29.6831 7.74812 30.2579 8.19964 30.5154C8.65121 30.773 9.22596 30.6157 9.48346 30.1642L10.736 27.9681C10.9935 27.5166 10.8362 26.9418 10.3847 26.6843Z" fill="#FF7291"/>
  <path d="M22.8995 27.0356C22.642 26.584 22.067 26.4269 21.6157 26.6843C21.1641 26.9418 21.0069 27.5166 21.2644 27.9681L22.5169 30.1642C22.7744 30.6157 23.3491 30.773 23.8008 30.5155C24.2523 30.258 24.4095 29.6832 24.152 29.2317L22.8995 27.0356Z" fill="#FF7291"/>
</svg>
