<svg xmlns="http://www.w3.org/2000/svg" width="25" height="25" viewBox="0 0 25 25"><g><g><g/><g><path fill="#7d3fa8" d="M14.44 17.707l2.939-2.939a2.667 2.667 0 0 0 .5-3.078l-.167-.333a2.667 2.667 0 0 1 .5-3.078l3.643-3.644a.667.667 0 0 1 1.068.174l1.471 2.943a5.85 5.85 0 0 1-1.095 6.753L15.3 22.504a7.236 7.236 0 0 1-7.405 1.748l-3.219-1.073a.667.667 0 0 1-.26-1.104L7.95 18.54a2.667 2.667 0 0 1 3.079-.5l.333.167a2.667 2.667 0 0 0 3.078-.5z"/></g><g opacity=".3"><path fill="#7d3fa8" d="M16.331.694l-.246 2.655a11.97 11.97 0 0 0-9.603 3.463A11.97 11.97 0 0 0 3.017 16.4l-2.655.244A14.636 14.636 0 0 1 4.596 4.926 14.636 14.636 0 0 1 16.331.694zm-.466 5.316l-.256 2.656a6.647 6.647 0 0 0-5.356 1.923 6.656 6.656 0 0 0-1.924 5.341l-2.655.248a9.324 9.324 0 0 1 2.693-7.476 9.312 9.312 0 0 1 7.498-2.692z"/></g></g></g></svg>