<?xml version="1.0" encoding="UTF-8"?>
<svg width="14px" height="16px" viewBox="0 0 14 16" version="1.1" xmlns="http://www.w3.org/2000/svg" xmlns:xlink="http://www.w3.org/1999/xlink">
    <!-- Generator: sketchtool 62 (101010) - https://sketch.com -->
    <title>F801DD5E-AD3D-4AD8-B5AD-BBD7D577C583@3x</title>
    <desc>Created with sketchtool.</desc>
    <g id="Page-1" stroke="none" stroke-width="1" fill="none" fill-rule="evenodd">
        <g id="Tutor-Results" transform="translate(-361.000000, -632.000000)" fill="#62686E" fill-rule="nonzero">
            <g id="Tutor-card" transform="translate(136.000000, 509.000000)">
                <g id="Group-3" transform="translate(225.000000, 123.000000)">
                    <path d="M6.66666667,-8.17124146e-14 C10.6666667,-8.17124146e-14 13.3333333,3.4258093 13.3333333,6.8516186 C13.3333333,8.95930019 11.440756,11.8450149 7.65560124,15.5087627 C7.09446924,16.0518966 6.21048535,16.0736287 5.62334225,15.5587242 L5.62334225,15.5587242 L5.2877032,15.2609007 C1.76256773,12.0955134 1.2141399e-12,9.29241939 1.2141399e-12,6.8516186 C1.2141399e-12,2.74064744 2.66666667,-8.17124146e-14 6.66666667,-8.17124146e-14 Z M6.66666667,3.65419659 C5.43936722,3.65419659 4.44444444,4.6767213 4.44444444,5.93806945 C4.44444444,7.19941761 5.43936722,8.22194232 6.66666667,8.22194232 C7.89396611,8.22194232 8.88888889,7.19941761 8.88888889,5.93806945 C8.88888889,4.6767213 7.89396611,3.65419659 6.66666667,3.65419659 Z" id="Pin"></path>
                </g>
            </g>
        </g>
    </g>
</svg>