<svg width="80" height="80" viewBox="0 0 80 80" fill="none" xmlns="http://www.w3.org/2000/svg">
  <circle cx="40" cy="40" r="38.5" stroke="#ff7291" stroke-width="3"/>
  <path d="M32.9488 51.3067C33.5767 51.4736 34.2216 51.0998 34.3886 50.4716L35.6358 45.78L39.7393 45.3845L41.3075 50.5412C41.4966 51.1633 42.1542 51.5139 42.7758 51.3248C43.3977 51.1357 43.7485 50.4782 43.5595 49.8564L42.1295 45.1541L42.4214 45.1259C43.0684 45.0636 43.5424 44.4885 43.48 43.8416C43.4176 43.1946 42.8424 42.7207 42.1956 42.783L41.4309 42.8567L38.656 33.7318C38.3136 32.6056 36.6966 32.628 36.3925 33.7718L33.7814 43.5939L31.6696 43.7975C31.0226 43.8598 30.5486 44.4349 30.611 45.0819C30.6734 45.73 31.2499 46.203 31.8954 46.1405L33.1362 46.0208L32.1137 49.8667C31.9467 50.495 32.3206 51.1396 32.9488 51.3067ZM37.6059 38.3693L39.0405 43.0871L36.2809 43.3532L37.6059 38.3693Z" fill="#ff7291"/>
  <path d="M46.1936 36.565C46.8436 36.565 47.3706 36.0381 47.3706 35.3881V32.8601C48.7483 32.9398 48.687 32.9375 48.7436 32.9375C49.3624 32.9375 49.8812 32.4543 49.9175 31.8286C49.955 31.1796 49.4594 30.6232 48.8105 30.5856L47.3706 30.5023V29.0539C47.3706 28.4039 46.8437 27.877 46.1936 27.877C45.5437 27.877 45.0167 28.4039 45.0167 29.0539V30.3661L43.7128 30.2906C43.064 30.2529 42.5073 30.7486 42.4698 31.3976C42.4322 32.0465 42.9278 32.603 43.5768 32.6406L45.0167 32.7239V35.3881C45.0167 36.0381 45.5437 36.565 46.1936 36.565Z" fill="#ff7291"/>
  <path d="M52.8489 25.5429C52.4037 25.0696 51.6588 25.0467 51.1853 25.4921C50.7119 25.9375 50.6892 26.6823 51.1345 27.1558C56.5158 32.8762 57.5591 43.3267 53.4602 50.4518C49.9194 56.6068 43.3605 58.9264 34.992 56.9832C26.4292 54.9949 23.0936 46.0305 24.3026 38.6053C25.6725 30.1907 33.2527 20.9321 50.1056 22.5318C50.7533 22.5926 51.3271 22.1184 51.3885 21.4713C51.45 20.8242 50.9751 20.2499 50.3281 20.1885C33.7416 18.614 23.7903 27.1032 21.9793 38.2271C20.4577 47.5733 25.1602 57.1167 34.4596 59.2759C43.2202 61.3101 51.1717 59.1501 55.5005 51.6254C60.0589 43.7016 58.9737 32.0536 52.8489 25.5429Z" fill="#ff7291"/>
</svg>
