<svg width="80" height="80" viewBox="0 0 80 80" fill="none" xmlns="http://www.w3.org/2000/svg">
  <circle cx="40" cy="40" r="38.5" stroke="#ff7291" stroke-width="3"/>
  <path d="M33.7109 31.3281H27.4609C26.8137 31.3281 26.2891 31.8528 26.2891 32.5C26.2891 33.1472 26.8137 33.6719 27.4609 33.6719H33.7109C34.3581 33.6719 34.8828 33.1472 34.8828 32.5C34.8828 31.8528 34.3581 31.3281 33.7109 31.3281Z" fill="#ff7291"/>
  <path d="M33.7109 37.5781H27.4609C26.8137 37.5781 26.2891 38.1028 26.2891 38.75C26.2891 39.3972 26.8137 39.9219 27.4609 39.9219H33.7109C34.3581 39.9219 34.8828 39.3972 34.8828 38.75C34.8828 38.1028 34.3581 37.5781 33.7109 37.5781Z" fill="#ff7291"/>
  <path d="M33.7109 43.8281H27.4609C26.8137 43.8281 26.2891 44.3528 26.2891 45C26.2891 45.6472 26.8137 46.1719 27.4609 46.1719H33.7109C34.3581 46.1719 34.8828 45.6472 34.8828 45C34.8828 44.3528 34.3581 43.8281 33.7109 43.8281Z" fill="#ff7291"/>
  <path d="M50.5078 41.4788V30.7797C50.5078 29.2352 49.9123 27.778 48.8309 26.676L44.076 21.7589C44.0737 21.7566 44.0714 21.7541 44.0691 21.7518C42.9744 20.6385 41.451 20 39.8898 20H24.8047C22.8662 20 21.2891 21.5771 21.2891 23.5156V53.9062C21.2891 55.8448 22.8662 57.4219 24.8047 57.4219H42.9166C44.5866 59.0182 46.8487 60 49.3359 60C54.5053 60 58.7109 55.8295 58.7109 50.7031C58.7109 45.9703 55.1262 42.0524 50.5078 41.4788ZM23.6328 53.9062V23.5156C23.6328 22.8695 24.1585 22.3438 24.8047 22.3438H39.8898C40.8253 22.3438 41.7381 22.7259 42.395 23.392L47.149 28.3084C47.1512 28.3107 47.1535 28.313 47.1557 28.3153C47.8059 28.9768 48.1641 29.852 48.1641 30.7798V41.4799C43.5889 42.0579 40.0391 45.9738 40.0391 50.7032C40.0391 52.2839 40.4361 53.7735 41.1349 55.0782H24.8047C24.1585 55.0781 23.6328 54.5524 23.6328 53.9062ZM49.3359 57.6562C45.502 57.6562 42.3828 54.5371 42.3828 50.7031C42.3828 46.8691 45.502 43.75 49.3359 43.75C53.213 43.75 56.3672 46.8691 56.3672 50.7031C56.3672 54.5371 53.213 57.6562 49.3359 57.6562Z" fill="#ff7291"/>
  <path d="M52.0395 47.9278C51.5424 47.5136 50.8034 47.5807 50.3891 48.0779L48.4112 50.4514L47.9625 49.554C47.673 48.9751 46.9691 48.7404 46.3902 49.03C45.8113 49.3193 45.5767 50.0233 45.8662 50.6022L47.1162 53.1022C47.2931 53.4559 47.6364 53.6965 48.0292 53.7422C48.0745 53.7473 48.1195 53.75 48.1645 53.75C48.5098 53.75 48.8405 53.5972 49.0646 53.3283L52.1896 49.5783C52.6039 49.081 52.5367 48.3421 52.0395 47.9278Z" fill="#ff7291"/>
  <path d="M39.9609 33.6719H41.2109C41.8581 33.6719 42.3828 33.1472 42.3828 32.5C42.3828 31.8528 41.8581 31.3281 41.2109 31.3281H39.9609C39.3137 31.3281 38.7891 31.8528 38.7891 32.5C38.7891 33.1472 39.3137 33.6719 39.9609 33.6719Z" fill="#ff7291"/>
  <path d="M42.3828 38.75C42.3828 38.1028 41.8581 37.5781 41.2109 37.5781H39.9609C39.3137 37.5781 38.7891 38.1028 38.7891 38.75C38.7891 39.3972 39.3137 39.9219 39.9609 39.9219H41.2109C41.8581 39.9219 42.3828 39.3972 42.3828 38.75Z" fill="#ff7291"/>
</svg>
