<?xml version="1.0" encoding="UTF-8"?>
<svg width="17px" height="20px" viewBox="0 0 17 20" version="1.1" xmlns="http://www.w3.org/2000/svg" xmlns:xlink="http://www.w3.org/1999/xlink">
    <!-- Generator: sketchtool 62 (101010) - https://sketch.com -->
    <title>58C3CA17-1B81-45D8-9C73-464C61EDB952@3x</title>
    <desc>Created with sketchtool.</desc>
    <g id="Page-1" stroke="none" stroke-width="1" fill="none" fill-rule="evenodd">
        <g id="Featured-Tutor-Profile" transform="translate(-964.000000, -496.000000)" fill="#27D6C0" fill-rule="nonzero">
            <g id="Send-a-Message" transform="translate(934.000000, 434.000000)">
                <g id="shield" transform="translate(30.000000, 62.000000)">
                    <path d="M16.8205128,5.1379021 C16.7966434,4.61277389 16.7966434,4.11151515 16.7966434,3.61025641 C16.7966434,3.20447552 16.4863403,2.89417249 16.0805594,2.89417249 C13.0968765,2.89417249 10.8292774,2.03487179 8.94358974,0.196923077 C8.65715618,-0.0656410256 8.22750583,-0.0656410256 7.94107226,0.196923077 C6.05538462,2.03487179 3.78778555,2.89417249 0.804102564,2.89417249 C0.398321678,2.89417249 0.088018648,3.20447552 0.088018648,3.61025641 C0.088018648,4.11151515 0.088018648,4.61277389 0.0641491841,5.1379021 C-0.0313286713,10.1504895 -0.174545455,17.0248951 8.20363636,19.9131002 L8.442331,19.9608392 L8.68102564,19.9131002 C17.035338,17.0248951 16.9159907,10.174359 16.8205128,5.1379021 Z M7.86946387,12.0839161 C7.72624709,12.2032634 7.55916084,12.2748718 7.36820513,12.2748718 L7.34433566,12.2748718 C7.15337995,12.2748718 6.96242424,12.1793939 6.84307692,12.0361772 L4.62321678,9.57762238 L5.69734266,8.62284382 L7.43981352,10.5562704 L11.3066667,6.88037296 L12.2853147,7.93062937 L7.86946387,12.0839161 Z" id="Shape"></path>
                </g>
            </g>
        </g>
    </g>
</svg>