<svg width="225" height="32" viewBox="0 0 225 32" fill="none" xmlns="http://www.w3.org/2000/svg">
  <path d="M42.4814 10.6667H63.4045V0H42.4814V10.6667Z" fill="#7D3FA8"/>
  <path d="M0.671875 0V10.6667H11.1148V32H21.5577V10.6667H32.0378V0H0.671875Z" fill="#7D3FA8"/>
  <path d="M32.0381 31.9993H63.4041V21.3327H42.481V10.666H32.0381V31.9993Z" fill="#7D3FA8"/>
  <path d="M90.0701 8.05664H74.7041V12.4949H79.851V26.4063H84.9232V12.4949H90.0701V8.05664Z" fill="#7D3FA8"/>
  <path d="M95.8519 12.3457C92.2341 12.3457 89.5488 14.7699 89.5488 19.5438C89.5488 23.7583 91.8239 26.7047 95.9637 26.7047C98.1269 26.7047 99.8798 26.1452 101.558 25.1382L99.7679 22.1173C98.388 22.8259 97.4183 23.087 96.1875 23.087C94.9195 23.087 94.0244 22.4156 93.8379 20.8865H101.931C101.968 20.6627 101.968 20.3644 101.968 19.9541C102.006 14.8445 99.656 12.3457 95.8519 12.3457ZM93.9125 17.9401C94.0616 16.5602 94.6584 15.8515 95.74 15.8515C97.1199 15.8515 97.6048 16.5602 97.8285 17.9401H93.9125Z" fill="#7D3FA8"/>
  <path d="M110.956 22.8632C109.688 22.8632 109.016 21.7443 109.016 19.5438C109.016 17.3807 109.613 16.1499 110.844 16.1499C111.851 16.1499 112.299 16.7093 112.97 17.9401L116.215 15.4786C115.021 13.5392 113.529 12.3457 110.919 12.3457C106.518 12.3457 104.354 15.2548 104.354 19.4692C104.354 24.094 106.779 26.6674 110.807 26.6674C113.231 26.6674 114.723 25.735 116.327 23.3853L113.343 21.0357C112.448 22.3783 111.851 22.8632 110.956 22.8632Z" fill="#7D3FA8"/>
  <path d="M127.217 12.3455C125.576 12.3455 124.606 12.905 123.748 13.539V7.31055L119.012 9.21264V26.4434H123.748V18.5739C123.748 16.8583 124.345 16.3735 125.352 16.3735C126.322 16.3735 126.919 16.8583 126.919 18.6112V26.4434H131.655V18.0145C131.655 14.3968 130.201 12.3455 127.217 12.3455Z" fill="#7D3FA8"/>
  <path d="M143.031 22.266C140.831 22.266 139.936 20.0282 139.936 17.231C139.936 14.3219 140.868 12.196 142.994 12.196C144.672 12.196 145.307 13.2776 145.941 14.9932L150.565 13.1657C149.297 9.69721 147.507 7.75781 142.994 7.75781C138.071 7.75781 134.603 11.3382 134.603 17.231C134.603 22.6762 137.512 26.7042 142.957 26.7042C147.32 26.7042 149.372 24.3546 150.603 21.9676L146.313 19.6925C145.307 21.4082 144.635 22.266 143.031 22.266Z" fill="#7D3FA8"/>
  <path d="M158.211 13.6511V12.6441H153.475V26.4063H158.211V18.9098C158.211 17.2315 158.92 16.672 160.076 16.672C161.008 16.672 161.68 17.1569 162.276 17.8282L163.395 12.9424C162.836 12.6068 162.165 12.3457 161.158 12.3457C159.927 12.3457 158.994 12.8678 158.211 13.6511Z" fill="#7D3FA8"/>
  <path d="M173.501 20.512C173.501 22.2277 172.905 22.7125 171.935 22.7125C170.965 22.7125 170.368 22.2277 170.368 20.4747V12.6426H165.632V21.0715C165.632 24.6892 167.086 26.7032 170.107 26.7032C171.711 26.7032 172.718 26.1437 173.539 25.5097V26.4421H178.275V12.6799H173.539V20.512" fill="#7D3FA8"/>
  <path d="M189.874 12.3457C188.233 12.3457 187.263 12.9051 186.406 13.5392V12.6068H181.669V26.369H186.406V18.4995C186.406 16.7839 187.002 16.2991 188.009 16.2991C188.979 16.2991 189.576 16.7839 189.576 18.5368V26.369H194.312V17.9401C194.312 14.397 192.895 12.3457 189.874 12.3457Z" fill="#7D3FA8"/>
  <path d="M203.712 22.8632C202.444 22.8632 201.773 21.7443 201.773 19.5438C201.773 17.3807 202.369 16.1499 203.563 16.1499C204.57 16.1499 205.017 16.7093 205.689 17.9401L208.933 15.4786C207.74 13.5392 206.248 12.3457 203.637 12.3457C199.236 12.3457 197.073 15.2548 197.073 19.4692C197.073 24.094 199.498 26.6674 203.525 26.6674C205.95 26.6674 207.442 25.735 209.045 23.3853L206.062 21.0357C205.241 22.3783 204.607 22.8632 203.712 22.8632Z" fill="#7D3FA8"/>
  <path d="M219.973 12.3455C218.332 12.3455 217.362 12.905 216.504 13.539V7.31055L211.768 9.21264V26.4434H216.504V18.5739C216.504 16.8583 217.101 16.3735 218.108 16.3735C219.078 16.3735 219.674 16.8583 219.674 18.6112V26.4434H224.411V18.0145C224.448 14.3968 222.994 12.3455 219.973 12.3455Z" fill="#7D3FA8"/>
</svg>
