<svg width="54" height="32" viewBox="0 0 54 32" fill="none" xmlns="http://www.w3.org/2000/svg">
<path d="M24.1453 16.0837C24.1453 14.0569 25.2052 12.9785 26.7113 12.9785C28.236 12.9785 29.24 13.9826 29.24 15.7304C29.24 16.8832 28.7938 18.0732 27.5666 18.7612L24.1639 20.5276V16.0837H24.1453ZM47.4062 17.1435C45.3423 16.5113 43.9663 16.2324 43.9663 14.7263C43.9663 13.5363 44.8403 12.8483 46.4765 12.8483C48.2615 12.8483 49.8792 13.369 51.3667 14.1313C51.627 14.2615 51.8873 14.1499 51.9245 13.8896L52.4265 9.03661C52.4451 8.79489 52.3522 8.59035 52.1105 8.49739C50.437 7.82801 48.4475 7.36316 46.0675 7.36316C40.3963 7.36316 37.4213 10.2452 37.4213 14.7821C37.4213 18.8542 39.8385 20.7321 44.5613 22.0151C46.4765 22.6101 47.1645 23.075 47.1645 24.3951C47.1645 25.6781 46.3464 26.459 44.5985 26.459C42.3115 26.459 39.8757 25.3992 37.849 24.2092C37.4957 24.0046 37.2354 24.172 37.2354 24.5067V29.6014C37.2354 29.9361 37.3283 30.1592 37.7002 30.3637C39.3365 31.2748 41.8281 32 44.9332 32C50.2325 32 53.6723 29.2295 53.6723 24.265C53.6909 19.9512 51.3109 18.3335 47.4062 17.1435ZM34.8182 24.1906C33.2935 25.1389 31.2296 26.1058 28.5521 26.1058C27.7153 26.1058 26.7485 25.9384 26.265 25.6595L30.8949 23.2981C33.684 21.7734 35.4318 19.7095 35.4318 15.9535V14.8379C35.376 10.7658 31.9919 7.38175 26.8228 7.38175C20.9658 7.38175 17.3957 10.896 17.3957 16.6229V22.7589C17.3957 25.3434 18.344 27.4073 19.6084 28.8019C21.4492 30.8286 24.2941 32 27.6967 32C31.025 32 33.405 31.3864 35.0599 30.3637C35.283 30.215 35.4876 30.0105 35.469 29.6014V24.5067C35.4318 24.1534 35.1343 23.9861 34.8182 24.1906ZM17.9536 29.3411C17.0239 28.0953 16.3731 26.7937 16.0012 25.1389C15.9454 24.8786 15.6665 24.7484 15.4248 24.8786C13.8257 25.7153 12.8589 25.957 11.9292 25.7153C10.9995 25.4736 10.4417 24.5439 10.4417 22.8704V13.2388H14.6067C14.8112 13.2388 14.96 13.0715 14.96 12.8855V7.99535C14.96 7.79082 14.7926 7.64207 14.6067 7.64207H10.4417V0.371877C10.4417 0.167345 10.2743 0 10.0884 0H3.98959C3.78506 0 3.63631 0.148751 3.63631 0.371877V7.64207H0.475353C0.270821 7.64207 0.12207 7.80941 0.12207 7.99535V12.8669C0.12207 13.0715 0.289415 13.2202 0.475353 13.2202H3.63631V24.5997C3.63631 30.2522 6.89023 31.9628 10.4231 31.9628C13.3795 31.9628 15.8339 31.1633 17.842 29.9361C18.0279 29.8245 18.0837 29.527 17.9536 29.3411Z" fill="#7D3FA8"/>
</svg>
