<svg width="24" height="24" viewBox="0 0 24 24" fill="none" xmlns="http://www.w3.org/2000/svg">
<path fill-rule="evenodd" clip-rule="evenodd" d="M0 12C0 5.3736 5.3736 0 12 0C18.6264 0 24 5.3736 24 12C24 18.6264 18.6264 24 12 24C5.3736 24 0 18.6264 0 12ZM17.4869 9.71228C17.4869 9.59308 17.4844 9.47443 17.4791 9.35632C18.0168 8.96759 18.4843 8.48236 18.8529 7.92993C18.3594 8.14929 17.8284 8.29706 17.2712 8.36371C17.84 8.02258 18.2765 7.48315 18.4825 6.84027C17.9502 7.15576 17.361 7.38501 16.7335 7.50879C16.2308 6.97339 15.5153 6.63849 14.723 6.63849C13.2019 6.63849 11.9683 7.87207 11.9683 9.39258C11.9683 9.60864 11.9927 9.81885 12.0399 10.0206C9.75073 9.90546 7.72083 8.80939 6.36255 7.14276C6.12598 7.5498 5.98956 8.02258 5.98956 8.52722C5.98956 9.48285 6.47571 10.3264 7.21527 10.8199C6.76337 10.806 6.33893 10.6818 5.96777 10.4755C5.96741 10.487 5.96741 10.4982 5.96741 10.5106C5.96741 11.8444 6.91681 12.9582 8.17712 13.2105C7.94568 13.2737 7.70215 13.3076 7.45074 13.3076C7.27368 13.3076 7.10101 13.29 6.93311 13.2578C7.28394 14.3522 8.30054 15.1485 9.50629 15.1708C8.56348 15.9097 7.37585 16.3499 6.08533 16.3499C5.86322 16.3499 5.64386 16.3372 5.42834 16.3118C6.64728 17.0931 8.09473 17.549 9.65021 17.549C14.7166 17.5488 17.4869 13.3519 17.4869 9.71228Z" fill="#7d3fa8"/>
</svg>
