<svg width="32" height="30" viewBox="0 0 32 30" fill="none" xmlns="http://www.w3.org/2000/svg">
  <path d="M29.9857 0.0214844H18.7932C18.3864 0.0214844 18.049 0.358849 18.049 0.76567C18.049 1.17249 18.3864 1.50986 18.7932 1.50986H29.9361C30.2536 1.50986 30.5216 1.76784 30.5216 2.09528V20.2832C30.5216 20.6007 30.2636 20.8686 29.9361 20.8686H2.0738C1.75628 20.8686 1.48837 20.6106 1.48837 20.2832V2.09528C1.48837 1.77776 1.74636 1.50986 2.0738 1.50986H13.2167C13.6236 1.50986 13.9609 1.17249 13.9609 0.76567C13.9609 0.358849 13.6236 0.0214844 13.2068 0.0214844H2.0738C0.932713 0.0214844 0 0.954197 0 2.09528V20.2832C0 21.4243 0.932713 22.357 2.0738 22.357H13.2763V24.8277H13.0282C10.875 24.8277 9.09892 26.574 9.05923 28.7272C9.05923 28.9455 9.1386 29.1539 9.28744 29.3027C9.43628 29.4615 9.63473 29.5409 9.85302 29.5409H22.147C22.3653 29.5409 22.5637 29.4615 22.7126 29.3027C22.8614 29.144 22.9507 28.9455 22.9408 28.7272C22.9011 26.574 21.125 24.8277 18.9718 24.8277H18.7237V22.3471H29.9262C31.0673 22.3471 32 21.4144 32 20.2733V2.03575C32 0.92443 31.0971 0.0214844 29.9857 0.0214844ZM14.7647 24.8277V22.3471H17.2453V24.8277H14.7647ZM13.0183 26.3161H18.9718C20.0533 26.3161 21.0158 27.0305 21.3433 28.0525H10.6567C10.9842 27.0206 11.9367 26.3161 13.0183 26.3161Z" fill="#FF7291"/>
  <path d="M2.72852 3.5438V18.8244C2.72852 19.261 3.08572 19.6182 3.52231 19.6182H28.4774C28.9139 19.6182 29.2712 19.261 29.2712 18.8244V3.5438C29.2712 3.10721 28.9139 2.75 28.4774 2.75H3.52231C3.08572 2.75 2.72852 3.10721 2.72852 3.5438ZM23.407 18.1298C23.1192 15.2325 21.1744 12.7816 18.416 11.8291C18.9418 11.2337 19.2296 10.4796 19.2296 9.69574V8.85232C19.2296 7.22504 18.0984 5.7962 16.6101 5.51837C15.6476 5.34969 14.6851 5.59775 13.9409 6.21295C13.2067 6.82814 12.78 7.73108 12.78 8.69357V9.69574C12.78 10.4895 13.0677 11.2436 13.5936 11.8291C10.8352 12.7717 8.89038 15.2325 8.60262 18.1298H4.21689V4.23837H27.7828V18.1298H23.407ZM14.2684 8.83248C14.2684 7.88984 14.9034 7.08612 15.7468 6.96705C15.8262 6.95713 15.9155 6.94721 15.9949 6.94721C16.4116 6.94721 16.8184 7.09605 17.136 7.37388C17.513 7.70132 17.7412 8.18752 17.7412 8.68364V9.5469C17.7412 10.4895 17.1062 11.2833 16.2628 11.4123C15.7567 11.4917 15.2507 11.3329 14.8736 11.0055C14.4966 10.6781 14.2684 10.1919 14.2684 9.69574V8.83248ZM15.2606 12.9702V15.0638C15.2606 15.4706 15.598 15.808 16.0048 15.808C16.4116 15.808 16.749 15.4706 16.749 15.0638V12.9702C19.428 13.3075 21.5713 15.4607 21.9087 18.1298H10.091C10.4284 15.4508 12.5815 13.2976 15.2606 12.9702Z" fill="#FF7291"/>
  <path d="M15.9952 1.5097C16.1936 1.5097 16.3821 1.43032 16.5211 1.2914C16.66 1.15249 16.7393 0.963963 16.7393 0.765514C16.7393 0.567064 16.66 0.378537 16.5211 0.239622C16.2432 -0.0382074 15.7471 -0.0382074 15.4693 0.239622C15.3304 0.378537 15.251 0.567064 15.251 0.765514C15.251 0.963963 15.3304 1.15249 15.4693 1.2914C15.6181 1.43032 15.8066 1.5097 15.9952 1.5097Z" fill="#FF7291"/>
</svg>
